<?xml version="1.0" standalone="no"?>
<!DOCTYPE svg PUBLIC "-//W3C//DTD SVG 20010904//EN"
 "http://www.w3.org/TR/2001/REC-SVG-20010904/DTD/svg10.dtd">
<svg version="1.0" xmlns="http://www.w3.org/2000/svg"
 width="50" height="50" viewBox="0 0 1920.000000 1920.000000"
 preserveAspectRatio="xMidYMid meet">

<g transform="translate(0.000000,1920.000000) scale(0.100000,-0.100000)"
fill="#000000" stroke="none">
<path d="M9114 16927 c-62 -35 -84 -53 -80 -63 2 -6 -1 -17 -7 -23 -8 -8 -7
-11 3 -11 7 0 10 -3 7 -7 -4 -3 4 -12 18 -19 13 -7 37 -19 52 -27 68 -35 88
-41 143 -42 55 0 90 12 63 22 -8 3 -11 14 -7 29 4 16 1 26 -9 30 -8 3 -13 13
-10 24 4 16 -27 60 -42 60 -3 0 -14 9 -25 20 -23 23 -74 26 -106 7z"/>
<path d="M9502 16095 c-7 -8 -10 -15 -6 -15 3 0 -1 -12 -11 -26 -14 -22 -15
-28 -4 -35 29 -18 44 -5 49 44 6 49 -3 59 -28 32z"/>
<path d="M9080 15987 c-19 -12 -38 -26 -42 -32 -21 -29 8 -195 33 -195 3 0 18
-12 33 -26 23 -24 26 -25 26 -8 1 17 1 18 11 2 7 -13 15 -15 32 -9 21 8 62 1
55 -10 -5 -9 29 -38 37 -31 4 4 4 -3 1 -15 -4 -12 -2 -24 5 -29 7 -4 9 -3 5 4
-3 6 -2 13 4 17 6 4 8 11 5 16 -4 5 -1 9 5 9 5 0 19 14 29 31 19 31 19 74 1
93 -5 5 -6 14 -4 21 3 6 -10 29 -28 49 -18 21 -32 40 -30 43 4 7 -63 53 -78
53 -12 0 -52 21 -60 32 -3 4 -21 -3 -40 -15z"/>
<path d="M8451 15971 c-29 -8 -52 -41 -33 -48 6 -3 12 -12 12 -22 0 -9 5 -22
11 -28 15 -15 15 -127 1 -144 -7 -8 -33 -38 -59 -67 -27 -30 -65 -79 -85 -110
-20 -32 -42 -62 -48 -69 -5 -7 -10 -17 -10 -23 0 -6 -4 -18 -10 -28 -43 -79
-80 -211 -80 -285 l0 -52 21 34 c11 19 22 43 24 53 2 10 7 24 11 30 5 7 9 19
10 28 5 50 16 91 37 135 13 28 33 68 43 90 10 22 47 69 82 105 35 36 78 84 94
108 27 39 30 50 28 115 -3 120 -4 132 -20 145 -11 10 -12 12 -1 6 10 -5 13 -3
8 9 -3 9 -1 18 6 21 18 7 -14 5 -42 -3z"/>
<path d="M9450 15960 c0 -30 12 -59 26 -64 11 -4 13 1 8 22 -8 33 -34 65 -34
42z"/>
<path d="M7006 15455 c-9 -9 -16 -22 -16 -29 0 -7 -9 -21 -20 -31 -12 -10 -18
-25 -16 -32 5 -12 -6 -17 -26 -14 -5 0 -8 -3 -8 -8 0 -5 -14 -14 -32 -20 -24
-9 -29 -14 -20 -23 17 -17 15 -36 -8 -68 -13 -18 -16 -31 -10 -35 5 -3 10 -15
10 -26 0 -20 26 -68 44 -81 16 -11 42 9 60 44 9 18 25 47 35 63 63 106 106
208 96 225 -3 5 -13 7 -23 6 -9 -2 -24 8 -33 21 -15 23 -17 23 -33 8z"/>
<path d="M10345 15369 c-4 -22 -4 -43 -1 -46 3 -4 6 -1 6 5 0 7 6 12 14 12 8
0 17 7 20 16 3 8 10 13 16 9 11 -7 51 30 43 39 -4 3 -25 6 -49 6 -42 0 -42 -1
-49 -41z"/>
<path d="M7334 15355 c-4 -10 -2 -26 4 -36 7 -10 12 -26 12 -34 0 -24 17 -9
24 20 5 18 1 32 -13 47 -19 20 -21 20 -27 3z"/>
<path d="M8833 15323 c-21 -21 -42 -37 -47 -35 -5 2 -5 -3 1 -10 5 -7 13 -21
16 -30 4 -12 1 -16 -14 -13 -10 2 -19 0 -19 -6 0 -5 5 -9 10 -9 6 0 10 -5 10
-11 0 -5 -4 -8 -9 -4 -5 3 -12 1 -16 -5 -4 -6 -11 -7 -17 -4 -7 5 -9 1 -5 -9
3 -9 0 -39 -7 -67 -7 -27 -9 -50 -5 -50 11 0 59 83 59 103 0 10 7 17 15 17 8
0 14 3 14 8 -4 21 2 42 12 42 6 0 27 16 46 35 19 19 42 35 52 35 9 0 24 7 33
14 16 12 16 14 -8 24 -47 22 -81 15 -121 -25z"/>
<path d="M10350 15315 c-11 -13 -15 -13 -21 -3 -6 9 -9 6 -9 -9 0 -13 -4 -23
-10 -23 -21 0 -9 -16 23 -29 77 -33 107 -84 114 -199 7 -94 18 -108 56 -70 22
22 24 29 16 74 -22 127 -72 241 -110 251 -11 3 -19 9 -19 14 0 15 -27 10 -40
-6z"/>
<path d="M7649 15213 c5 -10 9 -22 9 -28 1 -17 19 -16 26 1 7 19 -10 44 -31
44 -10 0 -11 -5 -4 -17z"/>
<path d="M8710 15052 c0 -5 -20 -31 -45 -56 -25 -26 -45 -52 -45 -58 0 -5 9
-23 20 -38 l20 -29 35 22 c33 21 34 24 35 89 0 37 -4 70 -10 73 -5 3 -10 2
-10 -3z"/>
<path d="M10368 14926 c-14 -8 -42 -19 -62 -26 -20 -6 -34 -15 -31 -20 3 -5
-4 -11 -15 -15 -11 -3 -20 -11 -20 -16 0 -5 -6 -9 -14 -9 -21 0 -46 -39 -46
-71 0 -39 9 -41 47 -6 19 17 49 38 66 47 48 23 77 44 77 55 0 5 7 23 15 39 19
36 16 39 -17 22z"/>
<path d="M10072 14781 c-41 -44 -72 -93 -72 -113 0 -15 43 2 73 30 26 25 51
90 45 117 -2 7 -21 -7 -46 -34z"/>
<path d="M10090 14632 c-13 -2 -43 -17 -65 -32 -38 -26 -41 -31 -37 -65 6 -47
37 -70 73 -53 26 12 72 79 82 120 7 28 -7 37 -53 30z"/>
<path d="M12270 14470 c-13 -11 -29 -20 -36 -20 -28 0 -63 -49 -62 -85 1 -33
5 -37 72 -69 134 -64 220 -82 247 -50 10 12 10 17 0 23 -9 6 -10 20 -5 46 5
29 4 36 -6 30 -9 -5 -10 -2 -5 14 4 14 2 21 -7 21 -7 0 -23 18 -36 40 -17 30
-30 41 -57 46 -19 3 -38 10 -41 15 -9 15 -40 10 -64 -11z"/>
<path d="M10915 14474 c-16 -3 -39 -9 -50 -13 -11 -5 -38 -16 -60 -25 -44 -19
-119 -84 -152 -131 -33 -48 -49 -165 -22 -165 6 0 24 -13 42 -30 27 -25 30
-33 20 -47 -6 -10 -16 -17 -21 -16 -16 4 17 -56 37 -67 28 -15 58 -1 75 35 12
25 15 61 13 156 -2 118 -1 126 23 159 49 69 123 115 200 125 52 6 65 15 24 15
-16 0 -45 2 -64 4 -19 2 -48 2 -65 0z"/>
<path d="M6110 14441 c0 -21 30 -38 85 -49 54 -10 85 -5 85 17 0 17 -6 18 -75
21 -20 1 -41 7 -48 14 -19 18 -47 16 -47 -3z"/>
<path d="M11392 14420 c-35 -21 -120 -27 -150 -11 -9 5 -38 12 -64 16 -75 11
-66 -12 39 -95 7 -6 19 -10 27 -10 8 0 18 -5 21 -10 4 -6 21 -8 38 -5 20 4 43
1 62 -9 17 -9 36 -16 44 -16 7 0 11 -6 8 -15 -4 -8 -2 -17 3 -20 6 -4 10 3 10
13 0 11 7 25 16 32 28 24 37 50 22 67 -7 9 -20 31 -28 49 l-16 33 -32 -19z"/>
<path d="M10013 14297 c-6 -7 -30 -25 -52 -41 -37 -27 -54 -56 -33 -56 9 0
112 95 112 104 0 10 -14 6 -27 -7z"/>
<path d="M5982 14221 c-42 -11 -72 -38 -72 -65 0 -12 -14 -45 -30 -75 -17 -30
-30 -55 -30 -57 0 -1 28 -4 63 -7 34 -2 71 -7 82 -11 16 -6 23 -1 33 26 26 65
37 80 87 130 27 28 44 47 38 44 -7 -4 -21 -3 -30 3 -27 14 -104 21 -141 12z"/>
<path d="M7280 14199 c-57 -45 -84 -73 -85 -88 0 -9 -4 -22 -8 -28 -12 -20
147 -100 219 -110 24 -3 47 -10 50 -14 8 -14 34 -11 50 5 16 17 19 36 4 36 -6
0 -8 10 -4 24 3 13 1 27 -4 30 -6 3 -8 15 -5 26 3 13 -5 29 -25 49 -16 17 -27
32 -25 35 3 2 -7 12 -21 22 -15 9 -29 14 -33 11 -3 -4 -18 0 -34 8 -37 19 -49
18 -79 -6z"/>
<path d="M9873 14176 c-13 -7 -20 -15 -17 -19 3 -3 -3 -3 -14 0 -11 2 -23 0
-26 -6 -4 -6 -16 -11 -27 -11 -11 0 -37 -14 -59 -31 l-38 -31 34 -35 c19 -19
31 -39 28 -44 -3 -5 -27 -20 -53 -33 -43 -22 -71 -57 -71 -90 0 -7 13 -30 30
-52 41 -55 39 -63 -17 -56 -43 5 -47 3 -35 -11 14 -16 0 -33 -18 -22 -5 3 -22
-1 -37 -9 -37 -18 -228 -21 -260 -3 -21 12 -21 14 -8 40 17 34 5 35 -33 2 -23
-19 -41 -25 -77 -25 -31 0 -44 4 -39 11 3 6 19 9 35 7 16 -3 25 0 22 5 -3 6
-36 7 -79 3 -63 -5 -80 -3 -114 15 -22 12 -46 29 -53 38 -26 35 -129 91 -168
91 -17 0 -38 4 -48 10 -26 13 -150 -12 -209 -42 -28 -14 -62 -44 -84 -74 l-38
-49 -82 -12 c-46 -6 -112 -12 -147 -12 -39 -1 -71 -6 -80 -15 -12 -10 -72 -15
-246 -20 -284 -8 -469 -16 -474 -22 -2 -2 976 -4 2174 -4 1198 0 2176 3 2173
6 -4 3 -46 8 -94 10 -49 3 -91 7 -93 10 -2 2 75 4 172 4 107 0 178 4 182 10 3
6 21 8 39 6 59 -7 64 10 10 35 -53 24 -104 66 -104 85 0 6 -9 14 -20 17 -11 3
-20 0 -20 -6 0 -8 -3 -8 -8 -2 -4 6 -53 11 -110 12 -86 3 -112 7 -156 28 -29
14 -58 25 -65 25 -6 0 -16 12 -21 26 -8 20 -13 24 -23 16 -15 -13 -58 -12 -51
0 3 4 0 8 -6 8 -6 0 -13 -6 -16 -13 -2 -7 -16 -14 -30 -15 -14 -1 -34 -6 -44
-12 -10 -5 -58 -10 -106 -10 l-88 0 -43 -46 c-33 -36 -46 -44 -56 -35 -8 6
-16 9 -19 6 -3 -3 -11 1 -18 10 -8 10 -9 15 -1 15 6 0 11 7 11 15 0 22 -21 18
-27 -5 -3 -11 -9 -17 -14 -14 -5 3 -9 0 -9 -5 0 -6 -6 -11 -13 -11 -17 0 -37
-42 -37 -75 0 -27 -20 -51 -51 -60 -25 -8 -37 1 -21 17 7 7 12 20 12 30 0 11
7 18 20 18 19 0 40 27 40 52 0 15 -33 17 -62 4 -13 -6 -16 -15 -11 -36 5 -27
3 -29 -38 -35 -24 -3 -89 -8 -144 -10 -55 -2 -103 -4 -106 -5 -4 0 -9 -9 -12
-19 -4 -16 -12 -18 -53 -14 -27 2 -54 6 -61 8 -14 5 -6 38 18 80 10 17 20 45
22 63 5 28 3 32 -18 32 -13 0 -30 2 -37 5 -17 7 -38 -33 -38 -70 0 -13 -4 -27
-10 -30 -5 -3 -10 -17 -10 -31 0 -18 -5 -24 -21 -24 -11 0 -17 -4 -14 -11 5
-7 -12 -9 -50 -7 -54 3 -59 5 -76 36 -9 19 -34 51 -53 72 -20 22 -36 44 -36
50 0 5 -16 10 -35 10 -19 0 -43 4 -53 9 -9 5 -34 17 -55 27 -22 11 -48 31 -59
47 l-19 27 35 0 c32 0 40 7 38 31 -4 33 20 136 34 146 17 12 17 13 -2 12 -10
-1 -29 -7 -41 -13z m-756 -432 c-3 -3 -12 -4 -19 -1 -8 3 -5 6 6 6 11 1 17 -2
13 -5z"/>
<path d="M11370 13959 c0 -5 5 -7 10 -4 6 3 10 8 10 11 0 2 -4 4 -10 4 -5 0
-10 -5 -10 -11z"/>
<path d="M6405 13740 l-40 -19 30 0 c407 -13 420 -13 404 4 -14 14 -39 17
-168 16 -98 -1 -151 2 -151 9 0 15 -30 11 -75 -10z"/>
<path d="M7268 13673 c17 -2 47 -2 65 0 17 2 3 4 -33 4 -36 0 -50 -2 -32 -4z"/>
<path d="M5064 13305 c-3 -8 -2 -20 2 -27 8 -12 19 -104 30 -248 3 -41 10 -79
15 -84 5 -6 9 -37 9 -70 1 -62 21 -161 32 -151 3 3 1 -12 -5 -35 -7 -26 -8
-43 -1 -50 6 -6 11 1 12 22 5 60 14 43 10 -19 -1 -34 1 -59 6 -56 5 4 7 -14 4
-41 -3 -25 -2 -48 2 -51 4 -2 5 -16 2 -30 -2 -15 0 -25 7 -25 6 0 11 -7 11
-15 0 -8 4 -15 9 -15 23 0 31 102 12 139 -6 11 -11 26 -10 33 0 7 4 4 9 -7 6
-15 9 -7 9 31 1 28 -2 54 -6 58 -5 4 -13 85 -20 179 -20 289 -33 451 -38 465
-6 18 -94 16 -101 -3z m155 -812 c1 -7 -3 -13 -9 -13 -5 0 -10 15 -9 33 0 27
2 29 9 12 5 -11 9 -26 9 -32z"/>
<path d="M5464 13278 c10 -59 39 -322 55 -488 5 -58 12 -125 16 -150 3 -25 11
-101 16 -170 20 -233 33 -370 49 -520 6 -52 15 -151 21 -220 14 -162 25 -292
37 -410 6 -52 15 -153 21 -225 6 -71 13 -152 16 -180 3 -27 10 -93 15 -145 19
-207 28 -300 39 -415 15 -169 19 -216 31 -330 15 -152 27 -278 39 -410 6 -66
13 -145 16 -175 13 -131 52 -545 70 -745 3 -33 10 -103 15 -155 22 -225 29
-292 39 -405 6 -66 13 -145 16 -175 3 -30 9 -102 15 -160 11 -120 16 -166 31
-305 5 -55 15 -154 20 -220 6 -66 15 -163 19 -215 5 -52 13 -138 18 -190 5
-52 15 -149 21 -215 6 -66 13 -145 16 -175 14 -141 25 -263 33 -355 5 -55 14
-152 20 -215 7 -63 14 -142 17 -175 3 -33 10 -103 15 -155 4 -52 13 -144 19
-205 5 -60 12 -120 15 -131 2 -12 7 -75 11 -140 4 -66 9 -130 12 -144 3 -14 9
-68 13 -120 16 -173 30 -325 35 -355 3 -16 8 -88 11 -158 4 -70 11 -130 16
-133 4 -3 8 -47 8 -98 0 -50 4 -96 9 -102 6 -5 11 -58 12 -118 1 -60 4 -116 6
-126 3 -13 27 -21 91 -34 48 -9 102 -16 120 -16 18 0 41 -4 50 -9 10 -5 49
-11 87 -13 l70 -3 -2 35 c-1 19 -6 82 -12 140 -6 58 -15 168 -20 245 -6 77
-13 163 -17 190 -3 28 -10 113 -16 190 -5 77 -13 185 -18 240 -4 55 -16 195
-25 310 -9 116 -21 264 -26 330 -17 207 -27 335 -38 490 -6 83 -15 200 -21
260 -5 61 -12 142 -15 180 -3 39 -9 120 -14 180 -27 332 -44 543 -52 645 -5
63 -13 169 -18 235 -5 66 -17 215 -26 330 -9 116 -21 260 -26 320 -4 61 -11
142 -14 180 -3 39 -10 120 -15 180 -6 61 -15 175 -21 255 -6 80 -15 197 -20
260 -5 63 -13 169 -18 235 -26 342 -31 415 -37 470 -3 33 -10 112 -14 175 -22
292 -29 379 -35 425 -3 28 -11 118 -17 200 -5 83 -14 195 -18 250 -4 55 -13
167 -19 250 -6 82 -13 168 -16 190 -3 22 -10 108 -16 190 -10 144 -16 216 -37
495 -6 69 -15 195 -21 280 -7 85 -16 185 -21 223 -6 37 -10 99 -10 137 0 38
-4 100 -10 137 -12 83 -28 315 -40 566 -5 103 -12 197 -15 208 -6 18 -18 19
-287 19 l-281 0 7 -42z"/>
<path d="M6584 13238 c4 -46 11 -126 16 -178 4 -52 11 -131 14 -175 3 -44 11
-141 17 -215 5 -74 15 -218 21 -320 5 -102 14 -241 18 -310 5 -69 13 -197 19
-285 5 -88 13 -189 16 -225 3 -36 11 -146 17 -245 5 -99 14 -241 18 -315 5
-74 11 -175 14 -225 3 -49 11 -151 17 -225 6 -74 15 -214 20 -310 6 -96 14
-236 19 -310 5 -74 13 -198 18 -275 5 -77 14 -216 21 -310 6 -93 13 -206 16
-250 3 -44 9 -145 15 -225 13 -199 26 -394 39 -595 6 -93 13 -208 16 -255 8
-117 22 -326 34 -505 5 -82 12 -177 16 -210 3 -33 11 -145 16 -250 6 -104 15
-248 20 -320 15 -230 27 -406 38 -585 6 -96 13 -209 16 -250 3 -41 8 -138 11
-215 3 -77 10 -144 15 -149 5 -6 9 -64 9 -131 0 -66 4 -134 9 -152 5 -17 12
-136 16 -265 4 -128 11 -238 16 -243 4 -6 10 -71 13 -145 14 -343 18 -396 27
-404 5 -6 9 -65 9 -132 0 -116 1 -123 20 -121 10 1 17 3 15 6 -3 2 3 10 14 17
15 11 17 24 15 82 -1 39 -7 87 -13 109 -7 25 -8 77 -2 153 10 124 -5 329 -23
343 -8 5 -6 10 3 16 12 8 12 25 2 115 -7 58 -13 161 -13 229 0 388 -2 438 -21
452 -16 11 -18 27 -17 107 1 51 0 104 -1 118 -1 14 -1 39 -1 55 1 17 -1 59 -3
95 -3 44 -2 59 4 45 7 -13 10 20 10 103 1 106 -1 122 -15 122 -13 0 -15 6 -10
28 16 61 26 169 21 210 -6 41 -19 54 -28 30 -3 -7 -2 36 1 95 4 79 2 111 -7
116 -9 6 -9 15 -1 35 13 36 13 206 0 206 -7 0 -10 56 -11 153 0 83 0 166 0
182 0 17 0 73 0 125 0 58 -4 97 -11 101 -7 5 -8 24 -4 55 12 85 14 124 6 129
-10 6 -11 140 -1 167 11 30 2 135 -11 116 -6 -9 -7 -6 -3 9 11 39 10 313 -1
321 -14 9 -18 612 -4 612 14 0 13 87 -1 92 -7 2 -12 123 -15 378 -4 370 -15
507 -40 517 -9 3 -9 13 0 41 l11 37 6 -40 6 -40 2 48 c0 30 -3 46 -9 42 -6 -4
-10 10 -10 35 0 25 4 39 10 35 6 -3 10 4 10 18 0 13 3 52 6 86 5 41 3 61 -4
61 -6 0 -13 -17 -15 -37 -2 -21 -2 -5 0 36 4 53 1 76 -8 81 -10 7 -10 27 -1
104 16 126 16 213 0 219 -16 5 -14 230 2 235 16 6 11 68 -10 122 -17 44 -20
74 -20 218 0 111 4 162 10 152 7 -10 10 9 10 64 0 64 -3 81 -17 92 -15 11 -16
16 -5 33 16 27 15 29 -5 34 -17 4 -17 5 0 6 13 1 17 10 17 41 0 22 -4 40 -10
40 -5 0 -10 18 -10 40 0 22 5 40 10 40 6 0 10 5 10 10 0 6 -9 10 -20 10 -26 0
-35 22 -20 49 11 21 -1 262 -16 339 -4 21 -3 32 5 32 7 0 11 -22 11 -60 0 -33
4 -60 10 -60 6 0 10 -31 11 -72 0 -40 4 -95 9 -123 6 -42 8 -34 9 56 1 115
-15 267 -31 287 -7 8 -6 12 3 12 12 0 13 35 11 197 -2 112 -7 199 -13 201 -5
2 -9 57 -9 123 0 73 -4 119 -10 119 -6 0 -10 -37 -10 -90 0 -54 -4 -90 -10
-90 -6 0 -8 10 -5 23 3 12 6 88 8 169 2 131 4 148 19 148 21 0 32 17 16 23 -8
3 -6 6 5 6 11 1 17 9 17 26 0 34 49 87 84 90 16 2 33 8 39 14 6 6 19 11 28 11
10 0 20 6 23 13 5 10 7 10 12 0 3 -7 12 -13 20 -13 9 0 13 4 9 9 -3 5 9 9 26
9 17 -1 34 4 37 9 4 6 32 11 62 11 30 0 61 0 68 1 9 1 12 31 12 116 l0 115
-436 0 -436 0 6 -82z m373 -420 c-3 -7 -5 -2 -5 12 0 14 2 19 5 13 2 -7 2 -19
0 -25z m80 -1570 c-3 -8 -6 -5 -6 6 -1 11 2 17 5 13 3 -3 4 -12 1 -19z m160
-5910 c-3 -8 -6 -5 -6 6 -1 11 2 17 5 13 3 -3 4 -12 1 -19z m0 -200 c-2 -13
-4 -5 -4 17 -1 22 1 32 4 23 2 -10 2 -28 0 -40z m-17 -265 c-11 -17 -11 -17
-6 0 3 10 6 24 7 30 0 9 2 9 5 0 3 -7 0 -20 -6 -30z"/>
<path d="M8186 13311 c-2 -3 3 -46 10 -96 7 -49 13 -135 13 -190 0 -55 5 -190
11 -300 6 -110 16 -461 21 -780 16 -849 44 -2054 52 -2225 3 -52 8 -291 12
-530 4 -239 9 -491 11 -560 3 -69 7 -309 10 -535 3 -226 10 -414 15 -420 5 -5
9 -166 9 -372 0 -200 4 -363 8 -363 4 0 9 -82 10 -182 8 -556 17 -1055 32
-1658 5 -212 13 -572 17 -800 9 -442 12 -460 58 -460 50 0 123 -23 118 -37 -4
-9 4 -13 28 -13 19 0 66 -9 104 -20 39 -11 81 -20 95 -20 21 0 22 -2 10 -14
-11 -10 -63 -15 -199 -20 -105 -3 -189 -10 -195 -16 -11 -11 -16 -88 -8 -126
4 -22 7 -22 224 -23 122 -1 224 -3 227 -5 6 -4 249 -9 297 -7 19 1 21 7 23 77
1 42 -2 81 -8 88 -7 8 -7 104 -1 286 5 151 9 1173 10 2270 0 3074 18 6957 32
7004 l12 38 55 -7 c31 -4 81 -8 111 -10 30 -2 116 -8 190 -14 74 -6 185 -11
247 -12 l111 -1 7 -145 c4 -80 4 -184 0 -232 -3 -47 -11 -304 -16 -571 -14
-732 -18 -888 -29 -1350 -6 -234 -16 -654 -21 -935 -6 -280 -15 -685 -19 -900
-5 -214 -13 -610 -19 -880 -5 -269 -12 -575 -16 -680 -6 -174 -11 -407 -35
-1605 -14 -654 -43 -1998 -48 -2185 -1 -22 -3 -81 -6 -131 l-5 -90 192 3 c247
5 527 19 550 29 18 7 19 44 7 194 -1 8 1 51 4 95 8 114 25 432 37 700 11 220
16 343 37 830 6 121 13 261 17 310 6 85 16 307 35 750 22 498 30 666 35 740 5
74 14 245 35 740 5 105 13 282 18 395 6 113 15 322 21 465 6 143 16 314 21
380 6 66 10 167 10 225 0 58 4 159 10 225 5 66 15 237 21 380 27 636 44 989
53 1160 3 55 13 249 21 430 8 182 17 380 20 440 6 129 20 414 34 710 21 447
23 462 74 463 18 1 75 4 127 7 52 3 159 7 237 8 128 3 144 5 158 23 14 19 14
19 15 -1 0 -16 2 -17 10 -5 16 26 35 -6 34 -58 -2 -82 -23 -465 -29 -522 -3
-30 -11 -138 -16 -240 -30 -513 -45 -764 -54 -855 -3 -39 -11 -151 -16 -250
-17 -293 -27 -446 -33 -520 -3 -38 -13 -194 -21 -345 -8 -151 -20 -318 -25
-370 -6 -52 -10 -130 -10 -174 0 -43 -4 -117 -10 -165 -5 -47 -15 -174 -21
-281 -10 -182 -16 -271 -39 -635 -13 -202 -27 -443 -40 -655 -6 -102 -15 -224
-20 -271 -6 -48 -10 -124 -10 -170 0 -46 -4 -127 -10 -179 -5 -52 -17 -219
-25 -370 -9 -151 -18 -302 -21 -335 -3 -33 -9 -125 -14 -205 -21 -366 -30
-510 -35 -570 -4 -36 -11 -139 -16 -230 -22 -366 -28 -455 -44 -690 -9 -135
-20 -312 -25 -395 -18 -290 -29 -461 -39 -605 -6 -80 -11 -187 -11 -238 0 -55
-7 -116 -16 -147 -8 -30 -14 -76 -12 -102 l3 -48 60 3 c78 3 320 29 412 44
l72 12 10 45 c6 25 10 87 10 136 0 50 5 146 11 215 6 69 15 181 21 250 15 184
26 322 44 540 19 220 30 361 44 535 5 66 17 206 26 310 17 204 29 349 44 540
5 66 17 206 26 310 9 105 21 242 26 305 16 205 28 351 44 545 9 105 21 242 26
305 17 218 28 356 44 545 10 105 21 240 26 300 4 61 11 137 14 170 3 33 12
148 20 255 9 107 18 220 21 250 3 30 9 107 14 170 5 63 12 142 15 175 3 33 12
148 20 255 9 107 18 218 20 245 3 28 10 104 15 170 5 66 12 143 14 170 3 28
12 147 21 265 9 118 20 245 25 283 6 37 10 96 10 132 0 36 4 95 10 132 5 38
17 169 25 293 9 124 20 259 25 300 6 41 10 101 10 132 0 32 4 88 10 125 5 38
16 165 25 283 9 118 18 235 21 260 3 25 9 95 14 155 12 146 27 310 40 420 5
50 10 95 10 102 0 10 -452 12 -2065 12 -1136 -1 -2067 -4 -2069 -8z m201
-7063 c-3 -8 -6 -5 -6 6 -1 11 2 17 5 13 3 -3 4 -12 1 -19z"/>
<path d="M12666 13268 c-3 -29 -10 -118 -16 -198 -6 -80 -13 -167 -16 -195 -3
-27 -9 -95 -14 -150 -4 -55 -16 -183 -25 -285 -9 -102 -21 -228 -25 -280 -25
-268 -30 -329 -45 -490 -20 -216 -31 -331 -43 -485 -6 -66 -13 -138 -16 -160
-4 -22 -11 -101 -17 -175 -6 -74 -15 -175 -20 -225 -4 -49 -12 -146 -18 -215
-5 -68 -13 -140 -16 -160 -3 -19 -10 -91 -16 -160 -15 -189 -27 -320 -33 -370
-3 -25 -12 -135 -21 -245 -9 -110 -20 -225 -25 -256 -6 -30 -10 -85 -10 -122
0 -37 -4 -86 -10 -109 -5 -24 -14 -113 -21 -198 -6 -85 -16 -200 -21 -255 -14
-145 -25 -272 -37 -425 -6 -74 -13 -153 -17 -175 -3 -22 -10 -92 -16 -155 -5
-63 -13 -155 -17 -205 -5 -49 -14 -151 -20 -225 -6 -74 -13 -153 -17 -175 -3
-22 -10 -92 -16 -155 -19 -227 -26 -307 -37 -440 -6 -74 -13 -153 -17 -175 -3
-22 -10 -92 -16 -155 -5 -63 -13 -155 -18 -205 -4 -49 -16 -175 -25 -280 -9
-104 -21 -233 -26 -285 -5 -52 -13 -142 -18 -200 -5 -58 -17 -186 -26 -285
-19 -211 -31 -338 -44 -490 -5 -60 -12 -135 -15 -165 -12 -116 -28 -288 -32
-360 -3 -41 -9 -84 -14 -95 -5 -11 -11 -48 -13 -83 -6 -75 -1 -79 75 -62 141
31 136 28 143 90 8 63 8 67 6 98 -1 20 -4 21 -22 11 -29 -15 -90 -3 -82 16 3
9 19 15 37 16 30 1 30 1 6 9 l-25 8 27 1 c21 1 25 5 21 22 -6 22 17 75 26 60
3 -5 6 14 7 42 2 112 8 172 18 179 6 4 11 34 12 67 1 33 5 64 8 69 3 6 7 64 7
131 1 66 6 118 10 115 5 -3 10 12 10 33 1 21 3 47 4 58 1 11 2 31 3 45 2 18 5
21 11 11 6 -8 9 18 10 70 1 84 6 138 17 214 3 22 6 77 8 123 1 47 7 87 14 94
7 7 12 44 12 94 0 46 4 85 9 88 4 3 9 34 9 68 1 35 6 108 11 162 5 55 8 103 5
107 -2 4 0 10 5 13 5 4 10 38 10 76 0 39 3 75 7 82 4 6 11 54 16 107 15 174
27 294 44 451 9 85 18 191 20 235 3 44 9 89 14 100 4 11 11 67 14 125 3 58 8
119 11 135 5 37 25 232 54 545 5 52 17 167 26 255 10 88 21 201 26 250 16 172
28 290 34 335 7 60 25 266 31 365 3 44 9 89 14 100 5 11 11 61 14 110 3 50 7
108 11 130 3 22 10 94 16 160 11 121 22 238 39 395 5 47 16 162 25 255 9 94
20 211 25 260 5 50 14 135 19 190 5 55 17 172 26 260 17 164 28 278 44 445 5
52 17 169 26 260 9 91 21 203 25 250 5 47 13 130 19 185 5 55 17 174 26 265
27 276 52 519 59 570 3 19 12 114 21 210 9 96 20 194 25 218 6 23 10 65 10 92
l0 50 -139 0 -139 0 -6 -52z m-569 -8380 c-3 -8 -6 -5 -6 6 -1 11 2 17 5 13 3
-3 4 -12 1 -19z m-60 -560 c-3 -7 -5 -2 -5 12 0 14 2 19 5 13 2 -7 2 -19 0
-25z"/>
<path d="M13102 13233 c-6 -48 -17 -146 -23 -218 -6 -71 -15 -168 -20 -215 -5
-47 -13 -141 -18 -210 -6 -69 -15 -152 -21 -186 -5 -33 -10 -93 -10 -132 0
-40 -4 -72 -9 -72 -5 0 -12 -37 -15 -82 -10 -168 -26 -334 -36 -381 -5 -27
-10 -79 -10 -117 0 -38 -4 -72 -10 -75 -5 -3 -10 -43 -10 -89 0 -45 -3 -86 -7
-90 -8 -7 -27 -205 -39 -398 -3 -49 -10 -88 -15 -88 -5 0 -9 -35 -9 -77 -1
-43 -5 -98 -10 -123 -5 -25 -12 -102 -16 -172 -4 -71 -11 -128 -16 -128 -4 0
-8 -32 -8 -71 0 -39 -4 -78 -9 -87 -5 -9 -12 -84 -16 -167 -3 -82 -11 -155
-17 -162 -6 -7 -9 -45 -6 -88 2 -57 0 -76 -11 -80 -10 -4 -13 -25 -9 -95 3
-59 1 -88 -6 -87 -6 1 -12 -15 -14 -37 -2 -24 0 -36 7 -32 17 11 30 77 27 148
-1 37 2 64 6 62 4 -3 8 -4 9 -2 4 20 22 197 24 243 1 33 5 80 8 105 3 25 11
86 16 135 6 50 14 110 17 135 3 25 8 79 10 120 3 41 9 84 14 95 5 11 11 56 14
100 2 44 7 107 10 140 4 33 9 101 12 150 3 50 10 94 15 99 5 6 9 48 9 94 0 48
4 81 9 77 6 -3 11 30 14 77 5 91 10 151 28 303 25 224 45 397 54 493 14 144
36 347 55 505 5 45 12 105 15 132 12 113 36 323 41 360 10 73 25 210 27 240 2
23 -3 31 -18 33 -19 3 -22 -5 -33 -85z"/>
<path d="M7023 12610 c0 -30 2 -43 4 -27 2 15 2 39 0 55 -2 15 -4 2 -4 -28z"/>
<path d="M5181 12414 c0 -11 3 -14 6 -6 3 7 2 16 -1 19 -3 4 -6 -2 -5 -13z"/>
<path d="M5226 12404 c-3 -9 -2 -23 4 -32 7 -14 9 -10 10 16 0 35 -5 41 -14
16z"/>
<path d="M5195 12387 c-4 -10 -2 -24 5 -32 8 -9 9 -28 5 -55 -5 -28 -3 -40 5
-40 7 0 10 -7 6 -16 -3 -9 -2 -12 4 -9 7 4 9 -8 7 -32 -3 -21 -2 -28 0 -15 2
12 9 19 15 16 6 -4 8 1 3 15 -3 11 -2 21 2 21 11 0 11 41 0 58 -5 6 -5 17 -1
24 4 7 3 8 -4 4 -7 -4 -10 -23 -8 -44 2 -20 1 -29 -1 -19 -2 9 -8 17 -13 17
-5 0 -7 15 -4 33 3 17 1 46 -4 62 -8 25 -11 27 -17 12z"/>
<path d="M5246 12126 c3 -9 11 -16 16 -16 13 0 5 23 -10 28 -7 2 -10 -2 -6
-12z"/>
<path d="M5231 12078 c0 -7 4 -22 9 -33 8 -18 9 -17 9 7 1 15 -3 30 -9 33 -5
3 -10 0 -9 -7z"/>
<path d="M5263 12035 c0 -27 2 -38 4 -22 2 15 2 37 0 50 -2 12 -4 0 -4 -28z"/>
<path d="M5241 11940 c0 -8 4 -22 9 -30 12 -18 12 -2 0 25 -6 13 -9 15 -9 5z"/>
<path d="M5276 11925 c-3 -8 -1 -15 4 -15 6 0 10 7 10 15 0 8 -2 15 -4 15 -2
0 -6 -7 -10 -15z"/>
<path d="M5302 11779 c3 -8 -1 -20 -9 -28 -13 -12 -14 -11 -8 8 4 12 2 21 -4
21 -6 0 -11 -14 -11 -32 0 -29 1 -30 18 -15 10 10 22 14 25 10 4 -3 7 3 7 15
0 11 -5 24 -12 28 -7 5 -9 2 -6 -7z"/>
<path d="M5290 11716 c0 -2 7 -9 15 -16 12 -10 15 -10 15 4 0 9 -7 16 -15 16
-8 0 -15 -2 -15 -4z"/>
<path d="M5289 11617 c3 -62 5 -67 12 -38 4 19 5 50 2 68 -10 60 -18 43 -14
-30z"/>
<path d="M5262 11570 c0 -19 2 -27 5 -17 2 9 2 25 0 35 -3 9 -5 1 -5 -18z"/>
<path d="M5322 11530 c0 -19 2 -27 5 -17 2 9 2 25 0 35 -3 9 -5 1 -5 -18z"/>
<path d="M5301 11504 c0 -11 3 -14 6 -6 3 7 2 16 -1 19 -3 4 -6 -2 -5 -13z"/>
<path d="M5312 11455 c0 -16 2 -22 5 -12 2 9 2 23 0 30 -3 6 -5 -1 -5 -18z"/>
<path d="M5312 11380 c0 -14 2 -19 5 -12 2 6 2 18 0 25 -3 6 -5 1 -5 -13z"/>
<path d="M5336 11368 c-3 -13 -5 -32 -5 -43 1 -11 5 -2 10 19 10 42 6 62 -5
24z"/>
<path d="M5330 11270 c0 -11 2 -20 4 -20 2 0 6 9 9 20 3 11 1 20 -4 20 -5 0
-9 -9 -9 -20z"/>
<path d="M5311 11264 c0 -11 3 -14 6 -6 3 7 2 16 -1 19 -3 4 -6 -2 -5 -13z"/>
<path d="M5362 11250 c0 -14 2 -19 5 -12 2 6 2 18 0 25 -3 6 -5 1 -5 -13z"/>
<path d="M5340 11215 c0 -5 4 -16 9 -23 6 -11 10 -10 15 4 3 9 4 19 1 22 -3 3
-5 -1 -5 -9 0 -11 -2 -11 -10 1 -5 8 -10 11 -10 5z"/>
<path d="M5346 11145 c-9 -26 -7 -32 5 -12 6 10 9 21 6 23 -2 3 -7 -2 -11 -11z"/>
<path d="M5345 11100 c-3 -5 -1 -10 4 -10 6 0 11 5 11 10 0 6 -2 10 -4 10 -3
0 -8 -4 -11 -10z"/>
<path d="M5317 11051 c-4 -17 -3 -21 5 -13 5 5 8 16 6 23 -3 8 -7 3 -11 -10z"/>
<path d="M5373 10980 c0 -25 2 -35 4 -22 2 12 2 32 0 45 -2 12 -4 2 -4 -23z"/>
<path d="M5381 10864 c0 -11 3 -14 6 -6 3 7 2 16 -1 19 -3 4 -6 -2 -5 -13z"/>
<path d="M5371 10823 c-1 -6 -4 -20 -7 -30 -5 -17 -5 -17 6 0 6 10 9 23 6 30
-3 9 -5 9 -5 0z"/>
<path d="M5372 10750 c0 -14 2 -19 5 -12 2 6 2 18 0 25 -3 6 -5 1 -5 -13z"/>
<path d="M5412 10700 c0 -14 2 -19 5 -12 2 6 2 18 0 25 -3 6 -5 1 -5 -13z"/>
<path d="M5480 9775 c0 -5 5 -17 10 -25 5 -8 10 -10 10 -5 0 6 -5 17 -10 25
-5 8 -10 11 -10 5z"/>
<path d="M12717 9453 c-11 -10 -8 -61 3 -68 6 -4 10 10 10 34 0 42 -2 46 -13
34z"/>
<path d="M12712 9313 c-1 -13 -5 -23 -10 -23 -4 0 -5 -21 -3 -47 2 -35 6 -42
13 -30 5 10 7 41 5 70 -2 28 -4 42 -5 30z"/>
<path d="M12686 9142 c2 -57 -7 -106 -17 -90 -5 8 -9 -16 -9 -59 0 -40 3 -73
8 -73 4 0 7 24 7 53 -1 28 5 61 12 72 14 21 18 121 5 129 -4 2 -7 -12 -6 -32z"/>
<path d="M12652 8890 c-18 -29 -15 -48 4 -22 8 12 14 27 12 32 -2 6 -9 1 -16
-10z"/>
<path d="M12641 8780 c0 -33 1 -34 11 -12 8 17 8 26 0 34 -9 9 -12 4 -11 -22z"/>
<path d="M12637 8629 c4 -13 8 -18 11 -10 2 7 -1 18 -6 23 -8 8 -9 4 -5 -13z"/>
<path d="M12616 8543 c-7 -23 -5 -106 2 -99 4 5 10 116 5 116 -1 0 -4 -8 -7
-17z"/>
<path d="M12593 8330 c0 -30 2 -43 4 -27 2 15 2 39 0 55 -2 15 -4 2 -4 -28z"/>
<path d="M12566 7985 c-3 -8 -1 -15 4 -15 6 0 10 7 10 15 0 8 -2 15 -4 15 -2
0 -6 -7 -10 -15z"/>
<path d="M7160 6390 c0 -5 5 -10 10 -10 6 0 10 5 10 10 0 6 -4 10 -10 10 -5 0
-10 -4 -10 -10z"/>
<path d="M7202 5710 c0 -14 2 -19 5 -12 2 6 2 18 0 25 -3 6 -5 1 -5 -13z"/>
<path d="M12022 4135 c0 -16 2 -22 5 -12 2 9 2 23 0 30 -3 6 -5 -1 -5 -18z"/>
<path d="M12011 4024 c0 -11 3 -14 6 -6 3 7 2 16 -1 19 -3 4 -6 -2 -5 -13z"/>
<path d="M12121 3950 c-11 -34 -26 -150 -19 -150 3 0 15 8 26 19 18 15 22 29
22 84 0 73 -12 93 -29 47z"/>
<path d="M6092 3880 c-18 -29 -15 -58 8 -70 18 -10 20 -8 19 22 0 18 -4 41 -7
50 -7 17 -8 16 -20 -2z"/>
<path d="M7210 3696 l0 -77 33 1 c17 0 106 -4 197 -10 225 -15 390 -22 404
-17 7 3 10 26 8 64 l-4 59 -76 3 c-101 3 -288 19 -382 31 -41 6 -99 13 -127
16 l-53 7 0 -77z"/>
<path d="M9565 3551 c11 -4 47 -4 80 -1 l60 7 -80 1 c-47 0 -72 -2 -60 -7z"/>
</g>
</svg>
